<?xml version="1.0" standalone="no"?>
<!DOCTYPE svg PUBLIC "-//W3C//DTD SVG 20010904//EN"
 "http://www.w3.org/TR/2001/REC-SVG-20010904/DTD/svg10.dtd">
<svg version="1.0" xmlns="http://www.w3.org/2000/svg"
 width="512.000000pt" height="512.000000pt" viewBox="0 0 512.000000 512.000000"
 preserveAspectRatio="xMidYMid meet">

<g transform="translate(0.000000,512.000000) scale(0.100000,-0.100000)"
fill="#eee5e9" stroke="none">
<path d="M2935 4919 c-11 -6 -26 -19 -32 -27 -10 -13 -13 -494 -13 -2330 0
-1462 4 -2320 10 -2331 5 -10 23 -24 39 -31 37 -15 79 2 98 40 10 20 12 485
10 2332 -2 2293 -2 2308 -22 2327 -26 25 -65 34 -90 20z"/>
<path d="M1490 3827 c-44 -22 -50 -49 -50 -235 l0 -174 29 -29 c36 -36 73 -37
106 -4 25 24 25 26 25 209 0 101 -3 192 -6 201 -6 15 -54 45 -71 45 -4 0 -19
-6 -33 -13z"/>
<path d="M3452 3775 c-87 -13 -117 -30 -124 -70 -8 -39 14 -70 93 -134 458
-365 599 -1009 337 -1536 -81 -162 -234 -344 -378 -448 -129 -94 -130 -95
-130 -132 0 -64 36 -83 215 -111 119 -19 311 -14 423 10 348 75 640 285 817
586 235 401 220 917 -39 1304 -267 398 -740 605 -1214 531z m448 -176 c301
-76 557 -280 695 -552 80 -159 115 -306 115 -488 0 -342 -149 -642 -428 -857
-173 -134 -414 -212 -657 -212 l-100 0 82 79 c304 295 457 670 440 1081 -14
345 -136 640 -376 909 l-66 74 105 -6 c58 -4 143 -16 190 -28z"/>
<path d="M658 3495 c-30 -17 -44 -52 -34 -89 3 -13 63 -83 132 -155 110 -114
130 -131 158 -131 17 0 39 6 48 14 25 18 39 62 29 89 -14 36 -253 276 -281
282 -14 2 -37 -2 -52 -10z"/>
<path d="M2313 3497 c-12 -6 -76 -70 -142 -140 -99 -105 -121 -133 -121 -158
0 -57 68 -97 118 -70 38 20 252 260 258 289 11 55 -63 108 -113 79z"/>
<path d="M1354 3325 c-264 -57 -485 -258 -575 -522 -31 -93 -33 -105 -33 -243
0 -138 2 -150 33 -243 82 -239 260 -417 499 -500 115 -40 287 -49 408 -22 300
67 528 291 600 591 22 91 22 257 0 348 -72 298 -299 523 -596 591 -80 18 -253
18 -336 0z m376 -178 c152 -54 278 -167 349 -312 49 -100 65 -167 65 -275 0
-142 -40 -259 -127 -377 -115 -154 -295 -243 -494 -243 -175 0 -311 57 -438
185 -123 123 -185 267 -185 435 0 277 197 531 470 605 90 24 267 15 360 -18z"/>
<path d="M276 2619 c-20 -16 -26 -29 -26 -59 0 -30 6 -43 26 -59 25 -20 40
-21 211 -21 182 0 184 0 208 25 16 15 25 36 25 55 0 19 -9 40 -25 55 -24 25
-26 25 -208 25 -171 0 -186 -1 -211 -21z"/>
<path d="M2354 2617 c-20 -17 -27 -33 -27 -57 0 -24 7 -40 27 -57 26 -22 33
-23 212 -23 183 0 185 0 209 25 16 15 25 36 25 55 0 19 -9 40 -25 55 -24 25
-26 25 -209 25 -179 0 -186 -1 -212 -23z"/>
<path d="M756 1869 c-126 -131 -144 -158 -132 -204 8 -31 57 -58 91 -49 28 7
262 246 276 282 10 26 -4 69 -29 88 -9 8 -31 14 -48 14 -28 0 -48 -17 -158
-131z"/>
<path d="M2075 1975 c-48 -47 -38 -71 96 -212 66 -70 132 -134 147 -141 54
-26 121 27 107 85 -3 17 -56 80 -133 161 -113 117 -131 132 -160 132 -22 0
-41 -8 -57 -25z"/>
<path d="M1469 1731 l-29 -29 0 -174 c0 -189 6 -214 54 -236 32 -16 80 -2 96
29 6 10 10 101 10 204 0 184 0 186 -25 210 -33 33 -70 32 -106 -4z"/>
</g>
</svg>
