<?xml version="1.0" standalone="no"?>
<!DOCTYPE svg PUBLIC "-//W3C//DTD SVG 20010904//EN"
 "http://www.w3.org/TR/2001/REC-SVG-20010904/DTD/svg10.dtd">
<svg version="1.0" xmlns="http://www.w3.org/2000/svg"
 width="512.000000pt" height="512.000000pt" viewBox="0 0 512.000000 512.000000"
 preserveAspectRatio="xMidYMid meet">

<g transform="translate(0.000000,512.000000) scale(0.100000,-0.100000)"
fill="#eee5e9" stroke="none">
<path d="M2336 5094 c-239 -43 -464 -162 -641 -339 -571 -571 -450 -1521 245
-1930 140 -82 323 -144 473 -160 l67 -7 0 -475 0 -475 -39 49 c-21 28 -77 85
-124 127 -84 78 -84 78 -76 114 23 98 0 233 -56 341 -189 359 -753 535 -1430
446 -171 -23 -193 -29 -212 -69 -22 -47 -3 -81 69 -123 105 -61 164 -141 385
-523 147 -253 231 -360 348 -442 98 -69 179 -92 304 -86 146 7 264 60 439 196
l83 64 37 -32 c145 -125 250 -317 268 -492 l6 -63 -67 -13 c-142 -27 -298
-113 -398 -220 l-47 -51 -46 19 c-110 47 -245 67 -357 51 -166 -23 -298 -90
-414 -209 l-72 -73 -78 11 c-131 20 -248 1 -380 -61 -209 -99 -362 -332 -363
-552 0 -73 11 -94 58 -107 52 -14 4432 -14 4484 0 47 13 58 34 58 107 -1 220
-154 453 -365 553 -130 61 -248 80 -378 60 l-78 -12 -67 70 c-197 205 -468
269 -737 177 l-74 -26 -37 41 c-105 116 -326 230 -448 230 -14 0 -26 6 -26 13
0 6 22 57 49 112 52 105 149 241 223 312 l43 42 75 -50 c97 -66 208 -122 298
-149 60 -18 91 -22 176 -18 95 3 108 6 181 42 159 79 264 216 445 581 173 349
225 426 327 492 30 19 58 45 63 58 11 30 -5 82 -30 95 -57 31 -492 40 -682 15
-481 -63 -824 -274 -929 -571 -28 -78 -36 -219 -16 -294 l15 -55 -61 -60 c-33
-33 -87 -94 -120 -135 -33 -41 -61 -77 -63 -79 -2 -2 -4 243 -4 546 l0 551 68
7 c37 4 108 18 157 30 566 148 950 669 922 1250 -29 570 -453 1052 -1011 1150
-110 19 -332 18 -440 -1z m509 -178 c581 -170 906 -757 739 -1334 -109 -377
-435 -673 -824 -746 -106 -20 -294 -20 -400 0 -284 53 -537 225 -698 472 -267
410 -217 953 122 1310 127 134 284 233 455 286 126 40 171 45 351 42 143 -3
177 -7 255 -30z m-1419 -2295 c342 -63 588 -226 648 -430 14 -49 22 -131 12
-131 -2 0 -59 27 -127 59 -141 68 -287 121 -330 121 -37 0 -79 -39 -79 -73 0
-47 34 -72 147 -111 106 -37 296 -126 321 -150 11 -11 1 -22 -55 -63 -146
-108 -247 -147 -358 -141 -156 8 -272 112 -437 393 -36 61 -104 175 -150 255
-47 80 -108 174 -136 210 -28 35 -48 67 -46 70 26 25 433 19 590 -9z m2770
-88 c-30 -43 -111 -191 -180 -330 -184 -367 -273 -490 -399 -548 -62 -30 -165
-34 -243 -10 -59 18 -176 78 -240 123 l-47 33 69 51 c94 69 188 123 281 163
86 38 103 54 103 100 0 48 -38 79 -90 72 -56 -7 -206 -82 -323 -161 -53 -36
-100 -66 -104 -66 -3 0 -4 33 -1 74 11 170 134 319 355 430 194 97 420 143
710 145 l162 1 -53 -77z m-1501 -1488 c143 -30 254 -105 381 -258 39 -46 66
-48 137 -8 166 93 384 86 542 -17 65 -42 128 -106 169 -171 32 -50 60 -58 134
-38 140 39 254 30 374 -30 124 -63 240 -209 255 -324 l6 -39 -2133 0 -2133 0
6 39 c15 115 131 261 255 324 120 60 234 69 374 30 74 -20 102 -12 134 38 119
190 343 289 554 245 42 -9 110 -34 156 -57 101 -51 119 -49 172 24 148 200
381 292 617 242z"/>
<path d="M2380 4785 c-195 -40 -384 -150 -510 -295 -167 -193 -251 -462 -221
-706 46 -375 293 -669 658 -781 81 -25 102 -27 253 -27 151 0 172 2 253 27
366 113 615 408 659 785 35 300 -98 622 -335 810 -120 95 -274 165 -421 191
-80 15 -256 12 -336 -4z m341 -159 c179 -38 345 -149 455 -303 271 -378 136
-912 -281 -1113 -120 -58 -213 -80 -337 -80 -344 0 -642 232 -734 571 -24 88
-24 280 0 368 81 297 301 500 611 565 47 9 225 5 286 -8z " />
<path d="M2505 4415 c-17 -16 -25 -35 -25 -59 0 -32 -4 -37 -43 -54 -113 -50
-179 -183 -148 -297 31 -118 112 -183 242 -196 45 -4 92 -15 105 -24 52 -33
55 -117 7 -155 -20 -15 -40 -20 -92 -20 -63 0 -69 2 -104 35 -26 24 -46 35
-67 35 -41 0 -80 -39 -80 -80 0 -43 58 -103 125 -131 51 -21 55 -25 55 -56 0
-44 38 -83 80 -83 43 0 80 39 80 84 0 31 4 38 35 50 119 50 186 179 156 303
-28 115 -121 187 -260 199 -97 9 -126 32 -126 99 0 39 5 51 28 71 24 20 39 24
96 24 63 0 70 -2 107 -35 47 -42 84 -45 119 -10 41 40 34 80 -22 134 -27 26
-67 52 -90 60 -39 13 -43 17 -43 48 0 44 -37 83 -80 83 -19 0 -40 -9 -55 -25z"/>
<path d="M767 4848 c-36 -28 -288 -325 -294 -347 -14 -55 36 -111 90 -97 24 6
49 29 135 126 l31 35 1 -683 0 -683 25 -24 c15 -16 36 -25 55 -25 19 0 40 9
55 25 l25 24 0 682 0 682 78 -81 c86 -92 113 -102 157 -57 33 32 32 75 -2 117
-58 71 -237 274 -260 296 -27 24 -70 29 -96 10z"/>
<path d="M4257 4838 c-23 -22 -202 -225 -260 -296 -34 -42 -35 -85 -2 -117 44
-45 71 -35 158 57 l77 81 0 -682 0 -682 25 -24 c15 -16 36 -25 55 -25 19 0 40
9 55 25 l25 24 0 683 1 683 31 -35 c86 -97 111 -120 135 -126 54 -14 104 42
90 97 -6 22 -258 319 -294 347 -26 19 -69 14 -96 -10z"/>
</g>
</svg>
