<?xml version="1.0" standalone="no"?>
<!DOCTYPE svg PUBLIC "-//W3C//DTD SVG 20010904//EN"
 "http://www.w3.org/TR/2001/REC-SVG-20010904/DTD/svg10.dtd">
<svg version="1.0" xmlns="http://www.w3.org/2000/svg"
 width="512.000000pt" height="512.000000pt" viewBox="0 0 512.000000 512.000000"
 preserveAspectRatio="xMidYMid meet">

<g transform="translate(0.000000,512.000000) scale(0.100000,-0.100000)"
fill="#000000" stroke="none">
<path d="M3225 5105 c-277 -51 -515 -223 -650 -468 -39 -71 -88 -206 -99 -272
l-7 -40 -92 91 c-183 180 -389 264 -648 264 l-111 0 -35 -35 -36 -36 6 -137
c4 -108 10 -155 31 -225 113 -378 417 -629 814 -672 l62 -7 0 -364 0 -364
-1102 -2 -1103 -3 -55 -27 c-71 -35 -133 -97 -168 -167 l-27 -56 0 -1165 0
-1165 27 -56 c35 -70 97 -132 168 -167 l55 -27 935 -3 c692 -2 942 1 963 9 49
20 69 81 45 134 -25 56 -12 55 -713 55 l-645 0 0 24 c0 39 -39 156 -77 227
-69 133 -184 248 -313 314 -71 36 -189 75 -226 75 l-24 0 0 578 0 577 58 11
c135 26 265 97 372 204 107 107 178 237 204 372 l11 58 1715 0 1715 0 11 -58
c26 -135 97 -265 204 -372 107 -107 237 -178 372 -204 l58 -11 0 -577 0 -578
-24 0 c-43 0 -178 -48 -256 -91 -98 -55 -214 -171 -269 -269 -43 -78 -91 -213
-91 -256 l0 -24 -645 0 c-701 0 -688 1 -713 -55 -24 -53 -4 -114 45 -134 21
-8 271 -11 963 -9 l935 3 57 28 c72 35 130 93 165 165 l28 57 0 1165 0 1165
-28 57 c-35 72 -93 130 -165 165 l-57 28 -965 3 -965 2 80 35 c272 119 476
369 536 660 22 105 25 277 6 315 -30 59 -144 76 -318 45 -205 -36 -361 -116
-506 -261 l-73 -72 0 223 0 222 73 6 c397 34 737 338 818 732 22 105 25 277 6
315 -21 43 -71 60 -172 59 -49 0 -121 -7 -160 -14z m145 -223 c0 -64 -37 -192
-82 -282 -60 -120 -188 -248 -308 -308 -91 -45 -218 -82 -283 -82 l-40 0 7 61
c31 267 215 506 465 600 66 25 163 47 209 48 31 1 32 -1 32 -37z m-1471 -418
c241 -60 445 -245 520 -472 25 -72 48 -209 38 -219 -4 -3 -47 0 -95 9 -161 28
-285 92 -397 203 -117 116 -195 274 -211 428 l-7 67 43 0 c24 0 73 -7 109 -16z
m1471 -790 c0 -66 -32 -179 -77 -274 -39 -81 -59 -107 -137 -185 -128 -127
-269 -197 -429 -212 l-70 -6 7 62 c36 320 289 588 604 641 96 16 102 14 102
-26z m-2734 -1061 c-46 -199 -212 -366 -403 -408 l-33 -7 0 169 c0 188 7 213
72 253 30 18 51 20 202 20 l168 0 -6 -27z m4215 4 c61 -40 69 -71 69 -254 0
-90 -4 -163 -8 -163 -5 0 -32 7 -61 16 -154 45 -292 177 -348 330 -12 36 -23
71 -23 79 0 13 28 15 169 15 158 0 170 -1 202 -23z m-4567 -1997 c111 -38 197
-104 268 -204 40 -58 88 -170 88 -207 0 -5 -73 -9 -162 -9 -184 0 -215 8 -255
69 -22 32 -23 44 -23 202 0 135 3 169 13 169 8 0 40 -9 71 -20z m4634 -154
c-3 -158 -5 -177 -24 -203 -40 -55 -72 -63 -253 -63 l-163 0 5 28 c33 163 177
327 341 388 105 39 98 50 94 -150z"/>
<path d="M2445 2234 c-321 -52 -588 -288 -677 -599 -30 -105 -32 -314 -4 -415
67 -244 233 -441 460 -545 120 -56 185 -69 336 -69 111 0 149 4 215 22 280 81
502 307 581 592 25 91 25 309 0 400 -78 284 -300 511 -576 590 -74 21 -267 35
-335 24z m285 -217 c325 -104 511 -425 430 -741 -58 -228 -228 -398 -456 -456
-287 -74 -592 79 -711 355 -41 95 -48 129 -48 245 0 116 7 150 48 245 59 139
165 248 305 314 50 24 80 34 167 55 37 9 220 -3 265 -17z"/>
<path d="M1024 1731 c-49 -12 -134 -63 -160 -94 -14 -17 -37 -53 -52 -81 -22
-43 -26 -64 -26 -136 -1 -78 2 -90 33 -148 38 -70 70 -100 145 -140 43 -22 64
-26 136 -26 72 0 93 4 136 26 75 40 107 70 145 140 31 58 34 70 33 148 0 72
-4 93 -26 136 -39 75 -70 107 -137 143 -65 34 -164 49 -227 32z m160 -230 c26
-27 31 -39 31 -81 0 -43 -5 -54 -33 -82 -28 -28 -39 -33 -82 -33 -43 0 -54 5
-82 33 -28 28 -33 39 -33 81 0 52 25 92 70 112 37 16 96 3 129 -30z"/>
<path d="M3945 1731 c-135 -35 -231 -150 -243 -287 -10 -126 53 -240 168 -303
60 -33 71 -36 150 -36 72 1 93 5 136 27 75 40 107 70 145 140 31 58 34 70 33
148 0 72 -4 93 -26 136 -39 75 -70 107 -137 143 -65 34 -164 49 -226 32z m159
-230 c26 -27 31 -39 31 -81 0 -43 -5 -54 -33 -82 -28 -28 -39 -33 -82 -33 -43
0 -54 5 -82 33 -28 28 -33 39 -33 81 0 52 25 92 70 112 37 16 96 3 129 -30z"/>
<path d="M2511 186 c-87 -48 -50 -186 49 -186 51 0 100 49 100 99 0 75 -83
124 -149 87z"/>
</g>
</svg>
